<mxfile host="app.diagrams.net" modified="2022-05-22T23:59:14.305Z" agent="5.0 (Windows NT 10.0; Win64; x64) AppleWebKit/537.36 (KHTML, like Gecko) Chrome/101.0.4951.67 Safari/537.36" etag="obQNRq6pNhOUg3yRyAry" version="18.1.1" type="github">
  <diagram id="9ESfWOqAHRcF0QjN_jNA" name="Page-1">
    <mxGraphModel dx="1689" dy="482" grid="1" gridSize="10" guides="1" tooltips="1" connect="1" arrows="1" fold="1" page="1" pageScale="1" pageWidth="827" pageHeight="1169" math="0" shadow="0">
      <root>
        <mxCell id="0" />
        <mxCell id="1" parent="0" />
        <mxCell id="UkILWO1FHEdnico-h9Kn-37" value="" style="edgeStyle=orthogonalEdgeStyle;rounded=0;orthogonalLoop=1;jettySize=auto;html=1;strokeColor=#000000;strokeWidth=1;" edge="1" parent="1" source="UkILWO1FHEdnico-h9Kn-1" target="UkILWO1FHEdnico-h9Kn-32">
          <mxGeometry relative="1" as="geometry" />
        </mxCell>
        <mxCell id="UkILWO1FHEdnico-h9Kn-57" style="edgeStyle=none;rounded=0;orthogonalLoop=1;jettySize=auto;html=1;exitX=0.5;exitY=1;exitDx=0;exitDy=0;strokeColor=#000000;strokeWidth=1;" edge="1" parent="1" source="UkILWO1FHEdnico-h9Kn-1">
          <mxGeometry relative="1" as="geometry">
            <mxPoint x="340" y="273" as="targetPoint" />
            <Array as="points">
              <mxPoint x="195" y="273" />
              <mxPoint x="270" y="273" />
            </Array>
          </mxGeometry>
        </mxCell>
        <mxCell id="UkILWO1FHEdnico-h9Kn-1" value="Camioneros" style="rounded=0;whiteSpace=wrap;html=1;fillColor=#e1d5e7;strokeColor=#9673a6;" vertex="1" parent="1">
          <mxGeometry x="130" y="150" width="130" height="40" as="geometry" />
        </mxCell>
        <mxCell id="UkILWO1FHEdnico-h9Kn-38" value="" style="edgeStyle=orthogonalEdgeStyle;rounded=0;orthogonalLoop=1;jettySize=auto;html=1;strokeColor=#000000;strokeWidth=1;" edge="1" parent="1" source="UkILWO1FHEdnico-h9Kn-2" target="UkILWO1FHEdnico-h9Kn-32">
          <mxGeometry relative="1" as="geometry" />
        </mxCell>
        <mxCell id="UkILWO1FHEdnico-h9Kn-2" value="paquetes" style="rounded=0;whiteSpace=wrap;html=1;fillColor=#dae8fc;strokeColor=#6c8ebf;" vertex="1" parent="1">
          <mxGeometry x="540" y="160" width="130" height="40" as="geometry" />
        </mxCell>
        <mxCell id="UkILWO1FHEdnico-h9Kn-3" value="provincias" style="rounded=0;whiteSpace=wrap;html=1;fillColor=#d5e8d4;strokeColor=#82b366;" vertex="1" parent="1">
          <mxGeometry x="110" y="400" width="130" height="40" as="geometry" />
        </mxCell>
        <mxCell id="UkILWO1FHEdnico-h9Kn-4" value="camiones" style="rounded=0;whiteSpace=wrap;html=1;fillColor=#ffe6cc;strokeColor=#d79b00;" vertex="1" parent="1">
          <mxGeometry x="540" y="370" width="130" height="40" as="geometry" />
        </mxCell>
        <mxCell id="UkILWO1FHEdnico-h9Kn-43" style="edgeStyle=none;rounded=0;orthogonalLoop=1;jettySize=auto;html=1;exitX=1;exitY=1;exitDx=0;exitDy=0;entryX=0;entryY=0.25;entryDx=0;entryDy=0;strokeColor=#000000;strokeWidth=1;" edge="1" parent="1" source="UkILWO1FHEdnico-h9Kn-5" target="UkILWO1FHEdnico-h9Kn-1">
          <mxGeometry relative="1" as="geometry" />
        </mxCell>
        <mxCell id="UkILWO1FHEdnico-h9Kn-5" value="telefono" style="ellipse;whiteSpace=wrap;html=1;" vertex="1" parent="1">
          <mxGeometry x="10" y="100" width="90" height="30" as="geometry" />
        </mxCell>
        <mxCell id="UkILWO1FHEdnico-h9Kn-40" value="" style="edgeStyle=orthogonalEdgeStyle;rounded=0;orthogonalLoop=1;jettySize=auto;html=1;strokeColor=#000000;strokeWidth=1;" edge="1" parent="1" source="UkILWO1FHEdnico-h9Kn-6" target="UkILWO1FHEdnico-h9Kn-1">
          <mxGeometry relative="1" as="geometry" />
        </mxCell>
        <mxCell id="UkILWO1FHEdnico-h9Kn-6" value="nombre" style="ellipse;whiteSpace=wrap;html=1;" vertex="1" parent="1">
          <mxGeometry x="140" y="90" width="90" height="30" as="geometry" />
        </mxCell>
        <mxCell id="UkILWO1FHEdnico-h9Kn-44" style="edgeStyle=none;rounded=0;orthogonalLoop=1;jettySize=auto;html=1;exitX=1;exitY=0.5;exitDx=0;exitDy=0;entryX=0;entryY=0.5;entryDx=0;entryDy=0;strokeColor=#000000;strokeWidth=1;" edge="1" parent="1" source="UkILWO1FHEdnico-h9Kn-8" target="UkILWO1FHEdnico-h9Kn-1">
          <mxGeometry relative="1" as="geometry" />
        </mxCell>
        <mxCell id="UkILWO1FHEdnico-h9Kn-8" value="direccion" style="ellipse;whiteSpace=wrap;html=1;" vertex="1" parent="1">
          <mxGeometry x="-20" y="150" width="90" height="30" as="geometry" />
        </mxCell>
        <mxCell id="UkILWO1FHEdnico-h9Kn-45" style="edgeStyle=none;rounded=0;orthogonalLoop=1;jettySize=auto;html=1;exitX=1;exitY=0;exitDx=0;exitDy=0;entryX=0;entryY=1;entryDx=0;entryDy=0;strokeColor=#000000;strokeWidth=1;" edge="1" parent="1" source="UkILWO1FHEdnico-h9Kn-10" target="UkILWO1FHEdnico-h9Kn-1">
          <mxGeometry relative="1" as="geometry" />
        </mxCell>
        <mxCell id="UkILWO1FHEdnico-h9Kn-10" value="direccion" style="ellipse;whiteSpace=wrap;html=1;" vertex="1" parent="1">
          <mxGeometry x="20" y="200" width="90" height="30" as="geometry" />
        </mxCell>
        <mxCell id="UkILWO1FHEdnico-h9Kn-46" style="edgeStyle=none;rounded=0;orthogonalLoop=1;jettySize=auto;html=1;exitX=0.5;exitY=1;exitDx=0;exitDy=0;entryX=0.077;entryY=-0.05;entryDx=0;entryDy=0;entryPerimeter=0;strokeColor=#000000;strokeWidth=1;" edge="1" parent="1" source="UkILWO1FHEdnico-h9Kn-12" target="UkILWO1FHEdnico-h9Kn-2">
          <mxGeometry relative="1" as="geometry" />
        </mxCell>
        <mxCell id="UkILWO1FHEdnico-h9Kn-12" value="codigo" style="ellipse;whiteSpace=wrap;html=1;" vertex="1" parent="1">
          <mxGeometry x="480" y="100" width="90" height="30" as="geometry" />
        </mxCell>
        <mxCell id="UkILWO1FHEdnico-h9Kn-47" style="edgeStyle=none;rounded=0;orthogonalLoop=1;jettySize=auto;html=1;exitX=0;exitY=1;exitDx=0;exitDy=0;entryX=0.5;entryY=0;entryDx=0;entryDy=0;strokeColor=#000000;strokeWidth=1;" edge="1" parent="1" source="UkILWO1FHEdnico-h9Kn-13" target="UkILWO1FHEdnico-h9Kn-2">
          <mxGeometry relative="1" as="geometry" />
        </mxCell>
        <mxCell id="UkILWO1FHEdnico-h9Kn-13" value="description" style="ellipse;whiteSpace=wrap;html=1;" vertex="1" parent="1">
          <mxGeometry x="590" y="100" width="90" height="30" as="geometry" />
        </mxCell>
        <mxCell id="UkILWO1FHEdnico-h9Kn-48" style="edgeStyle=none;rounded=0;orthogonalLoop=1;jettySize=auto;html=1;exitX=0;exitY=1;exitDx=0;exitDy=0;entryX=1;entryY=0.25;entryDx=0;entryDy=0;strokeColor=#000000;strokeWidth=1;" edge="1" parent="1" source="UkILWO1FHEdnico-h9Kn-14" target="UkILWO1FHEdnico-h9Kn-2">
          <mxGeometry relative="1" as="geometry" />
        </mxCell>
        <mxCell id="UkILWO1FHEdnico-h9Kn-14" value="destinatario" style="ellipse;whiteSpace=wrap;html=1;" vertex="1" parent="1">
          <mxGeometry x="690" y="140" width="90" height="30" as="geometry" />
        </mxCell>
        <mxCell id="UkILWO1FHEdnico-h9Kn-49" style="edgeStyle=none;rounded=0;orthogonalLoop=1;jettySize=auto;html=1;exitX=0.5;exitY=0;exitDx=0;exitDy=0;entryX=0.5;entryY=1;entryDx=0;entryDy=0;strokeColor=#000000;strokeWidth=1;" edge="1" parent="1" source="UkILWO1FHEdnico-h9Kn-15" target="UkILWO1FHEdnico-h9Kn-2">
          <mxGeometry relative="1" as="geometry" />
        </mxCell>
        <mxCell id="UkILWO1FHEdnico-h9Kn-15" value="direccion" style="ellipse;whiteSpace=wrap;html=1;" vertex="1" parent="1">
          <mxGeometry x="560" y="230" width="90" height="30" as="geometry" />
        </mxCell>
        <mxCell id="UkILWO1FHEdnico-h9Kn-54" style="edgeStyle=none;rounded=0;orthogonalLoop=1;jettySize=auto;html=1;exitX=0.5;exitY=1;exitDx=0;exitDy=0;entryX=0;entryY=0;entryDx=0;entryDy=0;strokeColor=#000000;strokeWidth=1;" edge="1" parent="1" source="UkILWO1FHEdnico-h9Kn-16" target="UkILWO1FHEdnico-h9Kn-3">
          <mxGeometry relative="1" as="geometry" />
        </mxCell>
        <mxCell id="UkILWO1FHEdnico-h9Kn-16" value="coigo _provincias" style="ellipse;whiteSpace=wrap;html=1;" vertex="1" parent="1">
          <mxGeometry x="40" y="340" width="100" height="30" as="geometry" />
        </mxCell>
        <mxCell id="UkILWO1FHEdnico-h9Kn-55" style="edgeStyle=none;rounded=0;orthogonalLoop=1;jettySize=auto;html=1;exitX=0.5;exitY=1;exitDx=0;exitDy=0;entryX=0.75;entryY=0;entryDx=0;entryDy=0;strokeColor=#000000;strokeWidth=1;" edge="1" parent="1" source="UkILWO1FHEdnico-h9Kn-17" target="UkILWO1FHEdnico-h9Kn-3">
          <mxGeometry relative="1" as="geometry" />
        </mxCell>
        <mxCell id="UkILWO1FHEdnico-h9Kn-17" value="proivincia&lt;br&gt;" style="ellipse;whiteSpace=wrap;html=1;" vertex="1" parent="1">
          <mxGeometry x="160" y="340" width="90" height="30" as="geometry" />
        </mxCell>
        <mxCell id="UkILWO1FHEdnico-h9Kn-50" style="edgeStyle=none;rounded=0;orthogonalLoop=1;jettySize=auto;html=1;exitX=0.5;exitY=1;exitDx=0;exitDy=0;entryX=0;entryY=0;entryDx=0;entryDy=0;strokeColor=#000000;strokeWidth=1;" edge="1" parent="1" source="UkILWO1FHEdnico-h9Kn-18" target="UkILWO1FHEdnico-h9Kn-4">
          <mxGeometry relative="1" as="geometry" />
        </mxCell>
        <mxCell id="UkILWO1FHEdnico-h9Kn-18" value="matricula" style="ellipse;whiteSpace=wrap;html=1;" vertex="1" parent="1">
          <mxGeometry x="460" y="320" width="90" height="30" as="geometry" />
        </mxCell>
        <mxCell id="UkILWO1FHEdnico-h9Kn-51" style="edgeStyle=none;rounded=0;orthogonalLoop=1;jettySize=auto;html=1;exitX=0.5;exitY=1;exitDx=0;exitDy=0;entryX=0.654;entryY=0;entryDx=0;entryDy=0;entryPerimeter=0;strokeColor=#000000;strokeWidth=1;" edge="1" parent="1" source="UkILWO1FHEdnico-h9Kn-19" target="UkILWO1FHEdnico-h9Kn-4">
          <mxGeometry relative="1" as="geometry" />
        </mxCell>
        <mxCell id="UkILWO1FHEdnico-h9Kn-19" value="modelo" style="ellipse;whiteSpace=wrap;html=1;" vertex="1" parent="1">
          <mxGeometry x="580" y="320" width="90" height="30" as="geometry" />
        </mxCell>
        <mxCell id="UkILWO1FHEdnico-h9Kn-52" style="edgeStyle=none;rounded=0;orthogonalLoop=1;jettySize=auto;html=1;exitX=0;exitY=1;exitDx=0;exitDy=0;entryX=1;entryY=0;entryDx=0;entryDy=0;strokeColor=#000000;strokeWidth=1;" edge="1" parent="1" source="UkILWO1FHEdnico-h9Kn-20" target="UkILWO1FHEdnico-h9Kn-4">
          <mxGeometry relative="1" as="geometry" />
        </mxCell>
        <mxCell id="UkILWO1FHEdnico-h9Kn-20" value="potencia" style="ellipse;whiteSpace=wrap;html=1;" vertex="1" parent="1">
          <mxGeometry x="690" y="330" width="90" height="30" as="geometry" />
        </mxCell>
        <mxCell id="UkILWO1FHEdnico-h9Kn-53" style="edgeStyle=none;rounded=0;orthogonalLoop=1;jettySize=auto;html=1;exitX=0;exitY=0.5;exitDx=0;exitDy=0;entryX=1;entryY=0.75;entryDx=0;entryDy=0;strokeColor=#000000;strokeWidth=1;" edge="1" parent="1" source="UkILWO1FHEdnico-h9Kn-21" target="UkILWO1FHEdnico-h9Kn-4">
          <mxGeometry relative="1" as="geometry" />
        </mxCell>
        <mxCell id="UkILWO1FHEdnico-h9Kn-21" value="tipo&lt;br&gt;" style="ellipse;whiteSpace=wrap;html=1;" vertex="1" parent="1">
          <mxGeometry x="700" y="390" width="90" height="30" as="geometry" />
        </mxCell>
        <mxCell id="UkILWO1FHEdnico-h9Kn-23" value="" style="endArrow=none;html=1;rounded=0;startArrow=none;" edge="1" parent="1" source="UkILWO1FHEdnico-h9Kn-7">
          <mxGeometry width="50" height="50" relative="1" as="geometry">
            <mxPoint x="264" y="114.5" as="sourcePoint" />
            <mxPoint x="294" y="114.5" as="targetPoint" />
          </mxGeometry>
        </mxCell>
        <mxCell id="UkILWO1FHEdnico-h9Kn-24" value="" style="endArrow=none;html=1;rounded=0;strokeColor=#FF99FF;" edge="1" parent="1">
          <mxGeometry width="50" height="50" relative="1" as="geometry">
            <mxPoint x="61" y="364" as="sourcePoint" />
            <mxPoint x="118" y="364" as="targetPoint" />
            <Array as="points" />
          </mxGeometry>
        </mxCell>
        <mxCell id="UkILWO1FHEdnico-h9Kn-25" value="" style="endArrow=none;html=1;rounded=0;" edge="1" parent="1">
          <mxGeometry width="50" height="50" relative="1" as="geometry">
            <mxPoint x="507" y="122" as="sourcePoint" />
            <mxPoint x="547" y="122" as="targetPoint" />
          </mxGeometry>
        </mxCell>
        <mxCell id="UkILWO1FHEdnico-h9Kn-26" value="" style="endArrow=none;html=1;rounded=0;" edge="1" parent="1">
          <mxGeometry width="50" height="50" relative="1" as="geometry">
            <mxPoint x="490" y="340" as="sourcePoint" />
            <mxPoint x="520" y="340" as="targetPoint" />
          </mxGeometry>
        </mxCell>
        <mxCell id="UkILWO1FHEdnico-h9Kn-32" value="entrega" style="shape=rhombus;perimeter=rhombusPerimeter;whiteSpace=wrap;html=1;align=center;strokeWidth=1;" vertex="1" parent="1">
          <mxGeometry x="350" y="145" width="100" height="50" as="geometry" />
        </mxCell>
        <mxCell id="UkILWO1FHEdnico-h9Kn-39" value="1,M" style="text;html=1;align=center;verticalAlign=middle;resizable=0;points=[];autosize=1;strokeColor=none;fillColor=none;" vertex="1" parent="1">
          <mxGeometry x="380" y="120" width="40" height="20" as="geometry" />
        </mxCell>
        <mxCell id="UkILWO1FHEdnico-h9Kn-42" style="edgeStyle=none;rounded=0;orthogonalLoop=1;jettySize=auto;html=1;exitX=0;exitY=1;exitDx=0;exitDy=0;entryX=0.892;entryY=-0.05;entryDx=0;entryDy=0;entryPerimeter=0;strokeColor=#000000;strokeWidth=1;" edge="1" parent="1" source="UkILWO1FHEdnico-h9Kn-7" target="UkILWO1FHEdnico-h9Kn-1">
          <mxGeometry relative="1" as="geometry" />
        </mxCell>
        <mxCell id="UkILWO1FHEdnico-h9Kn-7" value="dni" style="ellipse;whiteSpace=wrap;html=1;" vertex="1" parent="1">
          <mxGeometry x="240" y="100" width="90" height="30" as="geometry" />
        </mxCell>
        <mxCell id="UkILWO1FHEdnico-h9Kn-41" value="" style="endArrow=none;html=1;rounded=0;" edge="1" parent="1">
          <mxGeometry width="50" height="50" relative="1" as="geometry">
            <mxPoint x="295" y="123.5" as="sourcePoint" />
            <mxPoint x="271" y="124" as="targetPoint" />
          </mxGeometry>
        </mxCell>
        <mxCell id="UkILWO1FHEdnico-h9Kn-59" style="edgeStyle=none;rounded=0;orthogonalLoop=1;jettySize=auto;html=1;exitX=0;exitY=0.5;exitDx=0;exitDy=0;entryX=0.454;entryY=-0.025;entryDx=0;entryDy=0;strokeColor=#000000;strokeWidth=1;entryPerimeter=0;" edge="1" parent="1" source="UkILWO1FHEdnico-h9Kn-56" target="UkILWO1FHEdnico-h9Kn-4">
          <mxGeometry relative="1" as="geometry">
            <Array as="points">
              <mxPoint x="600" y="280" />
            </Array>
          </mxGeometry>
        </mxCell>
        <mxCell id="UkILWO1FHEdnico-h9Kn-56" value="conduce" style="shape=rhombus;perimeter=rhombusPerimeter;whiteSpace=wrap;html=1;align=center;strokeWidth=1;direction=west;rotation=0;" vertex="1" parent="1">
          <mxGeometry x="340" y="250" width="100" height="50" as="geometry" />
        </mxCell>
        <mxCell id="UkILWO1FHEdnico-h9Kn-60" value="N,M" style="text;html=1;align=center;verticalAlign=middle;resizable=0;points=[];autosize=1;strokeColor=none;fillColor=none;" vertex="1" parent="1">
          <mxGeometry x="360" y="230" width="40" height="20" as="geometry" />
        </mxCell>
        <mxCell id="UkILWO1FHEdnico-h9Kn-62" style="edgeStyle=none;rounded=0;orthogonalLoop=1;jettySize=auto;html=1;exitX=1;exitY=0.5;exitDx=0;exitDy=0;entryX=1;entryY=0.75;entryDx=0;entryDy=0;strokeColor=#000000;strokeWidth=1;" edge="1" parent="1" source="UkILWO1FHEdnico-h9Kn-61" target="UkILWO1FHEdnico-h9Kn-3">
          <mxGeometry relative="1" as="geometry">
            <Array as="points">
              <mxPoint x="330" y="430" />
            </Array>
          </mxGeometry>
        </mxCell>
        <mxCell id="UkILWO1FHEdnico-h9Kn-63" style="edgeStyle=none;rounded=0;orthogonalLoop=1;jettySize=auto;html=1;exitX=0;exitY=0.5;exitDx=0;exitDy=0;entryX=0;entryY=1;entryDx=0;entryDy=0;strokeColor=#000000;strokeWidth=1;" edge="1" parent="1" source="UkILWO1FHEdnico-h9Kn-61" target="UkILWO1FHEdnico-h9Kn-2">
          <mxGeometry relative="1" as="geometry">
            <Array as="points">
              <mxPoint x="530" y="290" />
            </Array>
          </mxGeometry>
        </mxCell>
        <mxCell id="UkILWO1FHEdnico-h9Kn-61" value="llegan" style="shape=rhombus;perimeter=rhombusPerimeter;whiteSpace=wrap;html=1;align=center;strokeWidth=1;direction=west;rotation=0;" vertex="1" parent="1">
          <mxGeometry x="330" y="350" width="100" height="50" as="geometry" />
        </mxCell>
        <mxCell id="UkILWO1FHEdnico-h9Kn-64" value="1,M" style="text;html=1;align=center;verticalAlign=middle;resizable=0;points=[];autosize=1;strokeColor=none;fillColor=none;" vertex="1" parent="1">
          <mxGeometry x="360" y="330" width="40" height="20" as="geometry" />
        </mxCell>
        <mxCell id="UkILWO1FHEdnico-h9Kn-65" value="1,M" style="text;html=1;align=center;verticalAlign=middle;resizable=0;points=[];autosize=1;strokeColor=none;fillColor=none;" vertex="1" parent="1">
          <mxGeometry x="500" y="160" width="40" height="20" as="geometry" />
        </mxCell>
        <mxCell id="UkILWO1FHEdnico-h9Kn-66" value="1,1" style="text;html=1;align=center;verticalAlign=middle;resizable=0;points=[];autosize=1;strokeColor=none;fillColor=none;" vertex="1" parent="1">
          <mxGeometry x="255" y="140" width="30" height="20" as="geometry" />
        </mxCell>
        <mxCell id="UkILWO1FHEdnico-h9Kn-67" value="1,1" style="text;html=1;align=center;verticalAlign=middle;resizable=0;points=[];autosize=1;strokeColor=none;fillColor=none;" vertex="1" parent="1">
          <mxGeometry x="535" y="200" width="30" height="20" as="geometry" />
        </mxCell>
        <mxCell id="UkILWO1FHEdnico-h9Kn-68" value="1,M" style="text;html=1;align=center;verticalAlign=middle;resizable=0;points=[];autosize=1;strokeColor=none;fillColor=none;" vertex="1" parent="1">
          <mxGeometry x="230" y="400" width="40" height="20" as="geometry" />
        </mxCell>
      </root>
    </mxGraphModel>
  </diagram>
</mxfile>
